<?xml version="1.0" standalone="no"?>
<!DOCTYPE svg PUBLIC "-//W3C//DTD SVG 20010904//EN"
 "http://www.w3.org/TR/2001/REC-SVG-20010904/DTD/svg10.dtd">
<svg version="1.0" xmlns="http://www.w3.org/2000/svg"
 width="247.000000pt" height="91.000000pt" viewBox="0 0 247.000000 91.000000"
 preserveAspectRatio="xMidYMid meet">

<g transform="translate(0.000000,91.000000) scale(0.100000,-0.100000)"
fill="#cc0030" stroke="none">
<path d="M72 889 c2 -7 40 -24 83 -40 76 -26 109 -51 102 -74 -2 -5 -12 -12
-22 -13 -12 -3 -15 0 -10 8 5 7 -6 5 -23 -5 -17 -10 -29 -22 -26 -27 3 -4 -1
-5 -9 -2 -16 6 -147 -117 -147 -137 0 -22 43 -81 66 -89 26 -10 61 -2 124 30
43 21 103 81 106 104 0 6 2 32 2 57 l2 46 80 27 c144 47 280 28 280 -40 l0
-25 -25 19 c-38 30 -90 36 -145 16 -27 -10 -46 -22 -43 -27 3 -6 1 -7 -6 -3
-14 9 -112 -37 -132 -61 -13 -15 -12 -15 11 -4 20 10 19 7 -8 -16 -29 -25 -47
-63 -22 -48 5 3 10 1 10 -5 0 -6 -6 -10 -12 -9 -31 4 -39 -2 -33 -20 3 -11 0
-23 -6 -27 -9 -5 -10 -2 -6 10 6 14 3 15 -13 6 -11 -6 -20 -13 -20 -16 0 -3 5
-2 10 1 6 3 10 1 10 -4 0 -6 -7 -11 -16 -11 -12 0 -14 -7 -9 -32 12 -54 58
-120 99 -141 39 -21 67 -19 156 9 23 7 21 3 -16 -42 -23 -27 -62 -63 -86 -81
l-44 -32 -27 34 c-14 18 -43 39 -62 45 -40 13 -125 5 -125 -11 0 -6 -4 -7 -10
-4 -15 9 -72 -24 -64 -38 4 -7 4 -9 -1 -5 -15 14 -35 -14 -35 -50 0 -41 41
-102 70 -102 10 0 20 -5 22 -11 2 -5 21 -10 43 -11 41 0 103 24 165 63 l35 23
-30 -33 -29 -32 33 17 c34 17 34 17 54 -10 10 -15 31 -33 46 -40 34 -17 117
-29 133 -19 7 4 21 9 31 10 10 2 50 23 88 48 38 25 76 45 83 45 7 0 25 10 40
21 l27 21 22 -20 c12 -11 33 -23 47 -27 35 -8 92 41 119 106 19 42 20 55 11
90 -6 23 -17 50 -23 60 -9 15 -9 24 0 38 7 11 15 42 19 69 6 46 4 53 -20 77
-25 25 -27 25 -45 8 -10 -10 -26 -43 -36 -73 -9 -30 -23 -59 -29 -65 -25 -21
-47 -63 -35 -67 7 -2 0 -24 -21 -61 l-33 -58 -23 22 c-13 12 -21 26 -18 30 3
5 0 9 -7 9 -7 0 -2 9 11 20 13 12 20 26 16 35 -3 9 -2 13 4 10 6 -4 24 7 40
23 26 26 27 29 8 24 -14 -3 -19 -1 -14 6 5 8 2 10 -8 6 -22 -9 -20 2 9 40 32
42 33 67 2 38 -13 -12 -27 -20 -30 -17 -4 3 -5 2 -3 -1 3 -3 -9 -18 -25 -32
-16 -15 -48 -65 -71 -112 -38 -75 -42 -91 -37 -134 3 -30 12 -53 23 -62 24
-17 14 -29 -46 -60 -73 -37 -141 -41 -198 -12 -31 16 -45 29 -45 43 0 11 -6
23 -14 26 -9 3 0 16 30 39 l44 34 -30 -34 -30 -33 28 18 c15 9 27 14 27 9 0
-17 74 64 120 131 67 99 145 260 159 327 9 41 9 68 2 96 -14 49 -75 130 -108
143 -28 10 -110 12 -167 2 -38 -6 -38 -6 -15 -20 l24 -14 -23 5 c-18 3 -21 2
-12 -9 8 -9 6 -14 -9 -18 -24 -6 -46 7 -37 22 9 14 -16 14 -48 -1 -25 -11 -25
-11 -6 -28 19 -16 17 -30 -3 -30 -6 0 -7 3 -4 7 11 10 -105 89 -157 107 -58
19 -89 21 -84 5z m305 -95 c-3 -3 -12 -4 -19 -1 -8 3 -5 6 6 6 11 1 17 -2 13
-5z m-127 -58 c0 -2 -7 -7 -16 -10 -8 -3 -12 -2 -9 4 6 10 25 14 25 6z m40
-21 c0 -15 -40 -82 -59 -99 -17 -15 -19 -22 -9 -29 9 -6 8 -7 -5 -3 -10 3 -36
-3 -57 -14 -77 -39 -94 -17 -32 42 71 68 162 125 162 103z m212 -13 c-7 -2
-10 -8 -6 -13 3 -5 -3 -8 -13 -7 -10 0 -27 0 -38 -1 -15 -1 -17 -3 -7 -10 11
-7 10 -9 -3 -14 -9 -4 -14 -3 -11 2 7 11 -22 23 -35 15 -5 -3 -9 -3 -9 0 0 3
10 10 21 17 17 8 20 8 14 -1 -9 -15 29 -5 60 15 11 7 24 10 30 7 5 -3 4 -7 -3
-10z m-327 -17 c-16 -13 -34 -24 -39 -25 -6 0 5 11 24 25 44 32 54 32 15 0z
m482 -22 c23 -60 -159 -230 -282 -262 -52 -14 -100 -1 -99 25 3 63 11 78 79
150 67 71 284 134 302 87z m-407 -53 c0 -5 -5 -10 -11 -10 -5 0 -7 5 -4 10 3
6 8 10 11 10 2 0 4 -4 4 -10z m325 -130 c-10 -11 -23 -20 -29 -20 -6 0 0 9 14
20 32 25 38 25 15 0z m222 -86 c-3 -3 -12 -4 -19 -1 -8 3 -5 6 6 6 11 1 17 -2
13 -5z m129 -91 c-8 -15 -15 -25 -16 -21 0 12 23 58 27 54 3 -2 -2 -17 -11
-33z m44 -8 c0 -65 -59 -152 -94 -139 -22 8 -20 15 12 46 16 14 34 46 42 70
17 54 19 58 31 58 5 0 9 -16 9 -35z m-210 -83 c0 -11 -9 -27 -20 -37 -22 -20
-25 -10 -10 29 11 30 30 35 30 8z m-460 -27 c7 -9 11 -17 9 -18 -13 -9 -63
-39 -94 -57 -42 -23 -136 -28 -153 -7 -14 16 11 57 34 57 8 0 14 4 14 9 0 25
170 40 190 16z"/>
<path d="M1456 561 c-16 -18 -18 -31 -12 -86 5 -52 2 -79 -15 -136 -12 -38
-19 -73 -15 -76 3 -4 6 1 6 10 0 19 64 89 74 80 3 -3 12 -1 20 6 20 17 50 21
67 9 11 -8 11 -9 -2 -5 -9 3 -23 -3 -32 -14 -9 -10 -13 -19 -9 -19 4 0 2 -4
-4 -8 -20 -12 -54 -94 -54 -128 0 -38 34 -82 68 -89 26 -5 44 12 113 98 57 72
47 80 -17 14 -107 -110 -123 -92 -48 53 29 57 62 104 92 132 49 45 52 59 26
110 -14 26 -15 27 -52 13 -20 -7 -57 -22 -82 -33 -25 -11 -55 -23 -68 -27 -22
-6 -23 -5 -17 28 4 22 2 44 -7 61 -14 27 -14 27 -32 7z"/>
<path d="M2396 565 c-6 -17 12 -75 24 -75 4 0 10 -14 14 -32 5 -24 9 -29 18
-20 8 8 5 26 -12 72 -24 65 -35 78 -44 55z"/>
<path d="M2039 557 c-9 -7 -25 -41 -37 -76 -12 -35 -32 -73 -44 -85 -26 -25
-34 -46 -17 -46 17 0 -53 -117 -93 -157 -21 -20 -40 -34 -43 -31 -3 3 2 21 10
41 15 36 12 43 -17 38 -18 -3 -6 10 18 19 17 7 24 15 20 25 -3 8 4 21 16 29
11 8 17 19 13 25 -3 7 -3 10 2 9 7 -3 63 48 63 57 0 3 -12 0 -26 -5 -32 -13
-44 -13 -44 0 0 5 7 7 16 3 13 -5 15 -2 10 14 -4 13 -1 25 9 33 9 8 23 27 32
44 l15 31 -34 -33 c-19 -18 -38 -29 -42 -25 -4 4 -9 -2 -12 -14 -3 -12 -12
-24 -20 -27 -19 -7 -75 -122 -89 -181 -15 -68 -9 -93 28 -116 40 -24 75 -24
107 0 24 19 25 19 50 1 38 -27 76 -35 87 -18 4 8 16 17 25 21 9 3 29 30 44 58
21 43 25 61 20 98 -3 24 -13 55 -22 69 -12 18 -13 26 -3 38 18 22 30 101 19
128 -12 33 -40 48 -61 33z m-16 -237 c-3 -10 -12 -25 -21 -32 -13 -11 -12 -8
2 20 19 36 27 41 19 12z m37 -27 c0 -64 -75 -162 -102 -135 -9 9 -5 19 14 39
24 25 41 57 48 88 10 47 40 53 40 8z m-97 -78 c-3 -9 -8 -14 -10 -11 -3 3 -2
9 2 15 9 16 15 13 8 -4z"/>
<path d="M1162 528 c-57 -71 -107 -225 -98 -302 7 -61 28 -94 73 -112 34 -15
37 -14 63 11 28 26 28 27 39 7 6 -11 27 -30 47 -43 l37 -22 28 34 c15 18 27
42 26 51 -1 15 -5 14 -27 -7 -14 -14 -34 -25 -43 -25 -23 0 -33 28 -19 51 7
10 12 25 12 34 0 8 7 32 15 53 12 28 21 38 37 38 16 -1 26 13 48 68 31 76 30
100 -4 90 -20 -6 -66 -47 -66 -59 0 -3 -14 -24 -30 -47 -17 -23 -37 -65 -46
-93 -14 -51 -38 -82 -80 -103 -46 -24 -86 46 -50 87 7 9 29 59 49 111 19 52
38 102 41 110 4 9 -4 30 -17 48 -19 25 -27 29 -35 20z"/>
<path d="M2238 508 c-13 -18 -30 -46 -37 -63 -7 -16 -19 -41 -26 -55 -14 -27
-27 -195 -18 -230 3 -12 11 -19 18 -16 7 2 29 -7 50 -21 35 -24 37 -24 56 -7
21 19 26 40 7 28 -7 -4 -8 -3 -4 5 4 6 12 9 17 5 6 -3 19 2 31 13 25 22 66 79
51 70 -7 -4 -14 -3 -18 3 -4 6 -12 7 -18 3 -7 -4 -6 0 2 10 10 12 18 14 31 7
15 -8 17 -6 13 8 -2 10 3 24 11 31 21 17 20 41 0 41 -12 0 -15 6 -10 25 23 95
21 96 -21 18 -40 -73 -114 -165 -151 -186 l-32 -18 4 23 c3 13 5 29 5 35 1 7
4 12 9 12 19 -3 25 2 12 11 -10 6 -11 10 -2 10 6 0 12 11 12 25 0 14 4 25 10
25 5 0 12 17 16 38 4 20 15 61 25 91 23 67 23 68 0 81 -17 8 -24 5 -43 -22z"/>
<path d="M1384 205 c0 -14 4 -25 9 -25 10 0 9 38 -2 44 -5 3 -8 -5 -7 -19z"/>
<path d="M1312 200 c0 -14 2 -19 5 -12 2 6 2 18 0 25 -3 6 -5 1 -5 -13z"/>
<path d="M260 60 c-8 -5 -12 -12 -9 -15 4 -3 12 1 19 10 14 17 11 19 -10 5z"/>
</g>
</svg>
